<?xml version="1.0" standalone="no"?>
<!DOCTYPE svg PUBLIC "-//W3C//DTD SVG 1.1//EN" "http://www.w3.org/Graphics/SVG/1.1/DTD/svg11.dtd" >
<!--
2017-9-6: Created with FontForge (http://fontforge.org)
-->
<svg xmlns="http://www.w3.org/2000/svg" xmlns:xlink="http://www.w3.org/1999/xlink" version="1.1">
<metadata>
Created by FontForge 20170104 at Wed Sep  6 11:32:47 2017
 By Will Squire

</metadata>
<defs>
<font id="icons" horiz-adv-x="512" >
  <font-face 
    font-family="icons"
    font-weight="400"
    font-stretch="normal"
    units-per-em="512"
    panose-1="2 0 5 3 0 0 0 0 0 0"
    ascent="448"
    descent="-64"
    bbox="-1.28027 -65.0303 821.581 448.549"
    underline-thickness="25.6"
    underline-position="-51.2"
    unicode-range="U+0020-F128"
  />
    <missing-glyph />
    <glyph glyph-name="space" unicode=" " horiz-adv-x="200" 
 />
    <glyph glyph-name="hamburger" unicode="&#xf10a;" 
d="M0 384v64h512v-64h-512zM0 160v64h512v-64h-512zM0 -64v64h512v-64h-512z" />
    <glyph glyph-name="google-plus" unicode="&#xf123;" 
d="M256 448c141.462 0 256 -114.538 256 -256s-114.538 -256 -256 -256s-256 114.538 -256 256s114.538 256 256 256zM274.253 111.229c18.71 23.2734 23.2725 54.7598 20.9912 85.334v0v0h-100.849v-36.0498v0v0c20.5352 -0.913086 40.6133 -0.457031 60.6914 -0.913086
c-5.01953 -17.7969 -16.4277 -33.7686 -34.2246 -40.1562c-25.5537 -10.9521 -56.1279 -2.73828 -74.3809 16.8838c-6.38867 6.38867 -10.9521 14.1465 -13.6904 23.2725c-13.2334 34.2246 8.21387 75.2939 42.8955 85.333
c21.9033 7.30176 43.8076 -0.912109 62.5166 -12.3203c9.58301 9.12695 18.2529 18.2529 26.9238 27.8359v0v0c-20.9912 17.7969 -47.915 28.292 -75.751 26.0107c-51.1084 -0.913086 -96.2852 -45.1768 -99.9355 -95.373v-10.0391
c-0.456055 -5.47559 0 -10.9512 0.912109 -16.4277c5.93262 -37.875 33.7686 -71.6436 70.2754 -83.5078c39.2441 -13.2334 87.6143 -3.65039 113.625 30.1172zM421.19 195.65v0h-29.6611v30.1182h-30.1172c-0.457031 -10.0391 -0.457031 -20.0791 -0.457031 -30.1182
h-30.1172v0v-30.1172v0h30.1172v-30.1182h30.1182v30.1182h30.1172v0v30.1172z" />
    <glyph glyph-name="twitter" unicode="&#xf111;" 
d="M631.04 387.84c-17.9199 -26.8799 -39.6797 -48.6396 -64 -66.5596v-16.6406c0 -171.52 -130.56 -368.64 -368.64 -368.64c-72.96 0 -140.801 20.4805 -199.681 58.8799c10.2402 -1.28027 20.4805 -1.28027 30.7207 -1.28027c61.4395 0 116.479 20.4805 161.279 55.04
c-56.3193 1.28027 -103.68 38.4004 -120.319 89.6006c7.67969 -1.28027 15.3594 -2.56055 24.3193 -2.56055c12.7998 0 24.3203 2.56055 34.5605 5.12012c-58.8799 11.5205 -103.681 64 -103.681 126.72v1.28027c17.9199 -10.2402 37.1201 -15.3594 58.8809 -16.6396
c-34.5605 23.04 -57.6006 62.7197 -57.6006 107.52c0 23.04 6.40039 46.0801 16.6396 64c64 -78.0801 160 -129.279 267.521 -134.399c-2.55957 8.95996 -3.83984 19.2002 -3.83984 29.4395c0 71.6807 57.5996 129.28 129.28 129.28
c37.1191 0 70.3994 -15.3604 94.7197 -40.96c29.4395 6.40039 56.3193 16.6396 81.9199 32c-8.95996 -30.7197 -29.4404 -56.3203 -56.3203 -71.6797c25.6006 3.83984 51.2002 10.2393 74.2402 20.4795z" />
    <glyph glyph-name="move" unicode="&#xf128;" 
d="M90.1084 168.633v46.7002h331.783v-46.7002h-331.783zM231.802 357.857h46.6992v-331.783h-46.6992v331.783zM335.698 349.161c5.75098 -7.58691 2.63281 -13.8574 -6.92871 -13.8574h-145.504c-9.52734 0 -12.6797 6.27051 -6.92871 13.8574l68.5254 92.915
c1.97949 3.19238 6.63574 5.78418 10.3926 5.78418s8.41309 -2.5918 10.3936 -5.78418zM174.535 34.8037c-5.75098 7.58691 -2.63281 13.8574 6.92871 13.8574h145.746c9.52734 0 12.6797 -6.27051 6.92871 -13.8574l-68.5254 -92.9141
c-1.97949 -3.19336 -6.63574 -5.78418 -10.3926 -5.78418s-8.41309 2.59082 -10.3936 5.78418zM413.196 112.302c-7.58691 -5.75098 -13.8574 -2.63281 -13.8574 6.92871v145.504c0 9.52734 6.27051 12.6797 13.8574 6.92871l92.9141 -68.5254
c3.19336 -1.97949 5.78418 -6.63574 5.78418 -10.3926s-2.59082 -8.41309 -5.78418 -10.3936zM98.8389 271.663c7.58691 5.75098 13.8574 2.63281 13.8574 -6.92871v-145.504c0 -9.52637 -6.27051 -12.6797 -13.8574 -6.92871l-92.915 68.5254
c-3.19238 1.98047 -5.78418 6.63672 -5.78418 10.3936s2.5918 8.41309 5.78418 10.3926z" />
    <glyph glyph-name="linkedin" unicode="&#xf10d;" 
d="M274.028 217.239v0s-1.03027 0 0 0v0zM471.823 448c20.6035 0 37.0859 -16.4824 38.1162 -37.0869v-438.856c0 -20.6035 -17.5127 -37.0869 -38.1162 -37.0869h-433.706c-21.6348 0 -38.1172 16.4834 -38.1172 37.0869v438.856
c0 20.6045 16.4824 37.0869 38.1172 37.0869h433.706zM154.527 19.4443v230.761h-77.2637v-230.761h77.2637zM115.38 282.141c27.8154 0 44.2979 17.5137 43.2676 40.1777c-1.0293 22.6631 -16.4824 40.1768 -43.2676 40.1768
c-25.7539 0 -43.2676 -17.5137 -43.2676 -40.1768c0 -22.6641 16.4834 -40.1777 43.2676 -40.1777v0zM431.646 19.4443v133.924c0 71.083 -38.1162 104.048 -88.5947 104.048c-40.1777 0 -58.7207 -22.6631 -69.0225 -38.1162v32.9658h-77.2637
c1.03027 -21.6338 0 -231.791 0 -231.791h77.2637v128.772c0 7.21191 0 13.3926 2.06055 18.5439c5.15039 13.3916 17.5127 27.8145 39.1465 27.8145c27.8154 0 39.1465 -21.6338 39.1465 -52.5391v-123.622h77.2637z" />
    <glyph glyph-name="dyson-sup-logo" unicode="&#xf11a;" 
d="M16.9434 438.438h-15.7695v6.375h37.9141v-6.20703h-15.6016v-49.3213h-6.54297v49.1533zM45.2949 448h5.87109v-29.3574c3.02051 4.5293 7.21387 6.54199 12.582 6.54199c8.05273 0 13.0859 -4.5293 13.0859 -12.4141v-23.4863h-5.87207v20.2988
c0 7.0459 -3.01953 10.4014 -9.22656 10.4014c-3.52344 0 -6.54297 -1.3418 -8.3877 -3.69043c-2.01367 -2.5166 -2.01367 -5.36816 -2.01367 -9.22754v-17.7822h-6.03906v58.7158zM91.0928 405.725v-0.50293c0 -7.5498 4.86523 -12.4141 11.4082 -12.4141
c4.69727 0 8.3877 2.51562 11.2393 7.54883l4.5293 -3.01953c-3.52246 -6.20703 -8.89062 -9.39453 -16.1045 -9.39453c-10.5684 0 -17.6143 7.54883 -17.6143 18.957c0 10.9043 7.21289 18.6211 17.2793 18.6211c10.2324 0 16.6074 -6.87793 16.6074 -18.4541v-1.17383
h-27.3447v-0.167969zM101.662 419.984c-5.7041 0 -9.89844 -3.69043 -10.5693 -9.5625h21.1377c-0.334961 6.20703 -4.36133 9.5625 -10.5684 9.5625zM159.874 444.812v-43.2812c0 -9.22754 -3.8584 -13.5889 -12.4141 -13.5889c-4.5293 0 -8.21973 1.8457 -11.4072 5.53613
l4.36133 4.36133c2.5166 -2.68359 4.69727 -4.02637 7.38184 -4.02637c4.69727 0 5.36816 3.8584 5.36816 11.0723v39.9268h6.70996zM204.162 389.284h-5.70312v6.20703c-2.85254 -5.03223 -7.21387 -7.7168 -12.582 -7.7168c-9.89746 0 -16.6084 7.38184 -16.6084 18.6211
c0 11.5752 6.54297 18.6211 16.2725 18.6211c5.87207 0 10.0654 -2.68359 12.75 -7.7168v6.54297h5.87109v-34.5586zM186.884 419.313c-7.21387 0 -11.4082 -4.5293 -11.4082 -12.4141c0 -8.38867 4.19434 -13.0859 11.5752 -13.0859
c7.0459 0 11.4082 4.53027 11.4082 12.582c-0.167969 7.88477 -5.0332 12.918 -11.5752 12.918zM262.71 409.583c0 7.0459 -2.68359 10.4014 -8.55566 10.4014c-3.1875 0 -6.03906 -1.3418 -7.88477 -3.69043c-1.50977 -2.01367 -1.84473 -4.19434 -1.84473 -7.0459
v-2.18164v-17.7822h-5.87207v20.2988c0 7.0459 -2.68359 10.4014 -8.55566 10.4014c-3.1875 0 -6.03906 -1.3418 -7.88477 -3.69043c-1.50977 -1.8457 -1.84473 -4.02637 -1.84473 -6.71094v-2.5166v-17.7822h-5.87207v34.7266h5.87207v-5.36816
c2.85156 4.36133 6.70996 6.54199 11.9111 6.54199c5.53516 0 9.56152 -2.34863 11.5752 -7.0459c3.01953 4.86523 7.0459 7.0459 12.4141 7.0459c7.7168 0 12.4141 -4.5293 12.4141 -12.4141v-23.4863h-5.87207v20.2988zM282.842 405.725v-0.50293
c0 -7.5498 4.86426 -12.4141 11.4072 -12.4141c4.69727 0 8.3877 2.51562 11.2402 7.54883l4.5293 -3.01953c-3.52344 -6.20703 -8.8916 -9.39453 -16.1055 -9.39453c-10.5684 0 -17.6143 7.54883 -17.6143 18.957c0 10.9043 7.21387 18.6211 17.2793 18.6211
c10.2334 0 16.6084 -6.87793 16.6084 -18.4541v-1.17383h-27.3447v-0.167969zM293.41 419.984c-5.7041 0 -9.89746 -3.69043 -10.5684 -9.5625h21.1377c-0.335938 6.20703 -4.19434 9.5625 -10.5693 9.5625zM319.916 398.511
c2.01367 -3.69043 4.86523 -5.53516 8.8916 -5.53516s6.54199 2.18066 6.54199 5.2002c0 2.68359 -1.84473 4.02637 -5.36816 5.2002c-8.55566 3.01953 -13.5879 4.3623 -13.5879 11.2402c0 6.03906 4.86426 10.4004 12.2461 10.4004
c6.03906 0 10.4014 -2.51562 12.4141 -6.87793l-4.86523 -3.01953c-1.3418 3.1875 -4.19336 5.0332 -7.88477 5.0332c-3.52246 0 -5.87109 -2.18164 -5.87109 -5.20117c0 -3.69043 3.1875 -4.19336 8.89062 -6.03906c6.71094 -2.18066 10.0664 -4.69727 10.0664 -10.4014
c0 -6.37402 -5.0332 -11.0713 -12.582 -11.0713c-6.375 0 -10.9043 2.34863 -13.5889 7.21289zM365.379 444.812h10.5684c10.4014 0 18.4541 0 25.1641 -5.2002c6.375 -4.86523 9.73047 -12.582 9.73047 -22.6475s-3.35547 -17.6152 -9.73047 -22.4795
c-6.375 -5.0332 -13.7559 -5.20117 -22.8154 -5.20117h-13.085v55.5283h0.167969zM376.283 395.491c9.39453 0 16.1045 0 20.8018 4.02637c4.5293 3.69043 7.0459 9.73047 7.0459 17.6152c0 7.88379 -2.34863 13.7559 -7.0459 17.6143
c-4.5293 3.8584 -11.2393 4.02637 -20.8018 4.02637h-4.19434v-43.1143h4.19434v-0.167969zM429.295 392.64l-13.5889 31.2031h6.87891l10.0654 -24.9961l10.7363 24.9961h6.54297l-23.3193 -51.6699h-6.70996zM456.304 398.511
c2.01367 -3.69043 4.86523 -5.53516 8.8916 -5.53516s6.54297 2.18066 6.54297 5.2002c0 2.68359 -1.8457 4.02637 -5.36914 5.2002c-8.55566 3.01953 -13.5879 4.3623 -13.5879 11.2402c0 6.03906 4.86523 10.4004 12.2461 10.4004
c6.03906 0 10.4014 -2.51562 12.4141 -6.87793l-4.86426 -3.01953c-1.34277 3.1875 -4.19434 5.0332 -7.88477 5.0332c-3.52344 0 -5.87207 -2.18164 -5.87207 -5.20117c0 -3.69043 3.1875 -4.19336 8.8916 -6.03906c6.70996 -2.18066 10.0654 -4.69727 10.0654 -10.4014
c0 -6.37402 -5.0332 -11.0713 -12.582 -11.0713c-6.375 0 -10.9043 2.34863 -13.5889 7.21289zM488.179 419.816c3.52246 3.52344 8.21973 5.36816 13.4199 5.36816c5.20117 0 9.73047 -2.0127 13.4209 -5.53613c3.52344 -3.52246 5.53613 -8.21973 5.53613 -13.2529
c0 -5.03223 -2.0127 -9.56152 -5.53613 -13.2529c-3.69043 -3.52246 -8.3877 -5.53613 -13.4209 -5.53613c-5.2002 0 -9.72949 2.01367 -13.4199 5.53613c-3.69141 3.69141 -5.53613 8.2207 -5.53613 13.2529c0 5.20117 1.84473 9.73047 5.53613 13.4209zM501.432 393.311
c6.87793 0 12.4141 5.7041 12.4141 13.085c0 7.38184 -5.53613 13.0859 -12.4141 13.0859c-7.0459 0 -12.582 -5.7041 -12.582 -13.0859c0 -7.21289 5.70312 -13.085 12.582 -13.085zM528.272 424.011h5.87207v-5.36816c3.01953 4.5293 7.21289 6.54199 12.582 6.54199
c8.05176 0 13.085 -4.5293 13.085 -12.4141v-23.4863h-5.87207v20.2988c0 7.0459 -3.01953 10.4014 -9.22656 10.4014c-3.52246 0 -6.54297 -1.3418 -8.3877 -3.69043c-2.01367 -2.5166 -2.01367 -5.36816 -2.01367 -9.22754v-17.7822h-5.87109v34.7266h-0.167969z
M7.21387 354.223h29.1895v-6.03906h-22.6475v-15.9375h22.6475v-6.20703h-22.6475v-27.3447h-6.54199v55.5283zM46.9727 329.227c3.52246 3.52344 8.21973 5.36816 13.4209 5.36816c5.2002 0 9.72949 -2.0127 13.4199 -5.53613
c3.52344 -3.52246 5.53613 -8.21973 5.53613 -13.2529c0 -5.03223 -2.0127 -9.56152 -5.53613 -13.2529c-3.69043 -3.52246 -8.3877 -5.53613 -13.4199 -5.53613c-5.20117 0 -9.73047 2.01367 -13.4209 5.53613c-3.69043 3.69141 -5.53613 8.2207 -5.53613 13.2529
c0 5.20117 1.8457 9.89844 5.53613 13.4209zM60.2256 302.889c6.87793 0 12.4141 5.7041 12.4141 13.085c0 7.38184 -5.53613 13.085 -12.4141 13.085c-7.0459 0 -12.582 -5.70312 -12.582 -13.085c0 -7.38086 5.7041 -13.085 12.582 -13.085zM92.6025 316.31
c0 -9.22656 2.18164 -13.4209 9.89844 -13.4209c7.54883 0 9.56152 4.19434 9.72949 13.4209v17.1113h5.87207v-20.2988c0 -10.4014 -5.36816 -15.9375 -15.7695 -15.9375c-10.0654 0 -15.6016 5.20117 -15.6016 15.4336v20.8027h5.87109v-17.1113zM128.168 333.421h5.87109
v-5.36816c3.01953 4.5293 7.21387 6.54199 12.582 6.54199c8.05273 0 13.085 -4.5293 13.085 -12.4141v-23.4863h-5.87109v20.4668c0 7.0459 -3.01953 10.4014 -9.22656 10.4014c-3.52344 0 -6.54297 -1.34277 -8.38867 -3.69141
c-2.0127 -2.51562 -2.0127 -5.36816 -2.0127 -9.22656v-17.9502h-5.87109v34.7266h-0.167969zM202.652 298.694h-5.70312v6.20703c-2.68457 -5.03223 -7.21387 -7.7168 -12.582 -7.7168c-9.89844 0 -16.6084 7.38184 -16.6084 18.6211
c0 11.5762 6.70996 18.6221 16.4404 18.6221c5.7041 0 10.0654 -2.68457 12.582 -7.71777v30.7002h5.87109v-58.7158zM185.206 328.724c-6.87793 0 -11.2402 -4.3623 -11.2402 -12.0791c0 -8.72363 4.3623 -13.5879 11.2402 -13.5879
c7.21289 0 11.5752 4.69727 11.5752 12.917c0.167969 7.7168 -4.69727 12.75 -11.5752 12.75zM245.935 298.694h-5.7041v6.20703c-2.85156 -5.03223 -7.21387 -7.7168 -12.582 -7.7168c-9.89746 0 -16.6074 7.38184 -16.6074 18.6211
c0 11.5762 6.54199 18.6221 16.2725 18.6221c5.87109 0 10.0654 -2.68457 12.749 -7.71777v6.54297h5.87207v-34.5586zM228.655 328.724c-7.21387 0 -11.4072 -4.5293 -11.4072 -12.4141c0 -8.38867 4.19336 -13.0859 11.5752 -13.0859
c7.0459 0 11.4072 4.53027 11.4072 12.582c0 7.88477 -4.86523 12.918 -11.5752 12.918zM251.471 328.556v4.86523h6.375v13.9238h5.87109v-13.9238h6.54297v-4.86523h-6.54297v-29.8613h-5.87109v29.8613h-6.375zM279.15 354.391c2.34863 0 4.3623 -2.0127 4.3623 -4.36133
s-2.01367 -4.19434 -4.3623 -4.19434s-4.36133 1.8457 -4.36133 4.36133c0 2.34863 1.8457 4.19434 4.36133 4.19434zM276.131 333.421h5.87207v-34.7266h-5.87207v34.7266zM295.591 329.227c3.52344 3.52344 8.2207 5.36816 13.4209 5.36816
s9.73047 -2.0127 13.4209 -5.53613c3.52246 -3.52246 5.53613 -8.21973 5.53613 -13.2529c0 -5.03223 -2.01367 -9.56152 -5.53613 -13.2529c-3.69043 -3.52246 -8.3877 -5.53613 -13.4209 -5.53613c-5.2002 0 -9.72949 2.01367 -13.4209 5.53613
c-3.69043 3.69141 -5.53613 8.2207 -5.53613 13.2529c0 5.20117 1.8457 9.89844 5.53613 13.4209zM308.844 302.889c6.87793 0 12.4141 5.7041 12.4141 13.085c0 7.38184 -5.53613 13.085 -12.4141 13.085c-7.0459 0 -12.582 -5.70312 -12.582 -13.085
c0 -7.38086 5.7041 -13.085 12.582 -13.085zM335.686 333.421h5.87109v-5.36816c3.02051 4.5293 7.21387 6.54199 12.582 6.54199c8.05273 0 13.085 -4.5293 13.085 -12.4141v-23.4863h-5.87109v20.4668c0 7.0459 -3.01953 10.4014 -9.22656 10.4014
c-3.52344 0 -6.54297 -1.34277 -8.3877 -3.69141c-2.01367 -2.51562 -2.01367 -5.36816 -2.01367 -9.22656v-17.9502h-5.87109v34.7266h-0.167969zM396.75 354.391c2.34863 0 4.36133 -2.0127 4.36133 -4.36133s-1.8457 -4.3623 -4.36133 -4.3623
c-2.5166 0 -4.3623 1.8457 -4.3623 4.3623c0.167969 2.51562 2.01367 4.36133 4.3623 4.36133zM393.897 333.421h5.87207v-34.7266h-5.87207v34.7266zM412.016 307.921c2.01367 -3.69043 4.86523 -5.53516 8.8916 -5.53516s6.54199 2.18066 6.54199 5.2002
c0 2.68359 -1.84473 4.02637 -5.36816 5.2002c-8.55566 3.01953 -13.5879 4.3623 -13.5879 11.2402c0 6.03906 4.86426 10.4014 12.2461 10.4014c6.03906 0 10.4014 -2.5166 12.4141 -6.87891l-4.86523 -3.01953c-1.3418 3.1875 -4.19336 5.0332 -7.88477 5.0332
c-3.52246 0 -5.87109 -2.18066 -5.87109 -5.20117c0 -3.69043 3.1875 -4.19336 8.89062 -6.03906c6.71094 -2.18066 10.0664 -4.69727 10.0664 -10.4014c0 -6.37402 -5.0332 -11.0713 -12.582 -11.0713c-6.375 0 -10.9043 2.34863 -13.5889 7.21289zM489.185 298.694
h-5.70312v6.20703c-2.85254 -5.03223 -7.21387 -7.7168 -12.582 -7.7168c-9.89844 0 -16.6084 7.38184 -16.6084 18.6211c0 11.5762 6.54297 18.6221 16.2725 18.6221c5.87207 0 10.0654 -2.68457 12.75 -7.71777v6.54297h5.87109v-34.5586zM471.738 328.724
c-7.21387 0 -11.4082 -4.5293 -11.4082 -12.4141c0 -8.38867 4.19434 -13.0859 11.5752 -13.0859c7.0459 0 11.4082 4.53027 11.4082 12.582c0 7.88477 -4.86523 12.918 -11.5752 12.918zM542.196 300.037c-3.1875 -1.8457 -7.21289 -2.85254 -11.5752 -2.85254
c-10.7363 0 -17.7822 7.5498 -17.7822 18.4541c0 11.4072 7.7168 18.9561 18.1182 18.9561c3.8584 0 7.54883 -0.838867 10.7363 -2.34863v-6.375c-3.01953 2.01367 -6.20703 3.02051 -9.5625 3.02051c-7.54883 0 -12.917 -5.20117 -12.917 -13.4209
c0 -7.0459 5.2002 -12.582 12.4141 -12.582c3.69043 0 7.0459 1.3418 10.7363 4.02637v-6.87793h-0.167969zM548.907 357.41h5.87109v-29.3574c3.01953 4.5293 7.21387 6.54199 12.582 6.54199c8.05273 0 13.085 -4.5293 13.085 -12.4141v-23.4863h-5.87109v20.4668
c0 7.0459 -3.01953 10.4014 -9.22656 10.4014c-3.52344 0 -6.54297 -1.34277 -8.38867 -3.69141c-2.0127 -2.51562 -2.0127 -5.36816 -2.0127 -9.22656v-17.9502h-5.87207v58.7158h-0.166992zM623.392 298.694h-5.70312v6.20703
c-2.85254 -5.03223 -7.21387 -7.7168 -12.582 -7.7168c-9.89844 0 -16.6084 7.38184 -16.6084 18.6211c0 11.5762 6.54297 18.6221 16.2725 18.6221c5.87207 0 10.0654 -2.68457 12.75 -7.71777v6.54297h5.87109v-34.5586zM606.112 328.724
c-7.21289 0 -11.4072 -4.5293 -11.4072 -12.4141c0 -8.38867 4.19434 -13.0859 11.5752 -13.0859c7.0459 0 11.4082 4.53027 11.4082 12.582c0 7.88477 -4.86523 12.918 -11.5762 12.918zM633.793 333.421h5.2002v-7.21387c3.1875 5.87207 6.375 8.3877 11.5752 8.3877
c1.34277 0 2.68457 -0.166992 4.02637 -0.670898l-2.0127 -5.36816c-1.3418 0.50293 -2.5166 0.670898 -3.69043 0.670898c-6.20703 0 -9.39453 -4.5293 -9.39453 -13.5879v-16.9443h-5.87207v34.7266h0.167969zM663.318 354.391c2.34863 0 4.3623 -2.0127 4.3623 -4.36133
s-2.01367 -4.19434 -4.3623 -4.19434s-4.36133 1.8457 -4.36133 4.36133c0 2.34863 1.84473 4.19434 4.36133 4.19434zM660.299 333.421h5.87109v-34.7266h-5.87109v34.7266zM672.042 328.556v4.86523h6.375v13.9238h5.87109v-13.9238h6.54297v-4.86523h-6.54297v-29.8613
h-5.87109v29.8613h-6.375zM707.271 302.05l-13.5889 31.2031h6.87793l10.0664 -24.9961l10.7363 24.9961h6.54199l-23.3184 -51.6699h-6.70996zM8.05273 216.996c1.84473 -3.8584 4.86426 -5.53613 8.72363 -5.53613c4.02539 0 6.54199 2.18066 6.54199 5.2002
c0 2.68457 -1.8457 4.02637 -5.36816 5.20117c-8.55566 3.01953 -13.5889 4.36133 -13.5889 11.2393c0 6.04004 4.86523 10.4014 12.2471 10.4014c6.03906 0 10.4004 -2.5166 12.4141 -6.87793l-4.86523 -3.01953c-1.3418 3.1875 -4.19434 5.03223 -7.88477 5.03223
c-3.52246 0 -5.87109 -2.18066 -5.87109 -5.2002c0 -3.69043 3.1875 -4.19434 8.89062 -6.03906c6.71094 -2.18164 10.0654 -4.69727 10.0654 -10.4014c0 -6.375 -5.03223 -11.0723 -12.5811 -11.0723c-6.375 0 -10.9053 2.34863 -13.5889 7.21387zM42.4434 225.384
c0 -9.22656 2.18066 -13.4209 9.89746 -13.4209c7.54883 0 9.5625 4.19434 9.72949 13.4209v17.1113h5.87207v-20.2988c0 -10.4004 -5.36816 -15.9365 -15.7695 -15.9365c-10.0654 0 -15.6016 5.2002 -15.6016 15.4336v20.8018h5.87207v-17.1113zM77.8398 242.328h5.7041
v-6.54297c2.68457 5.03223 7.21387 7.7168 12.582 7.7168c9.89746 0 16.6084 -7.21387 16.6084 -18.6211c0 -11.7432 -6.71094 -18.6211 -16.4404 -18.6211c-5.7041 0 -10.0654 2.68359 -12.582 7.7168v-23.1504h-5.87207v51.502zM95.4551 211.963
c6.87793 0 11.2393 4.53027 11.2393 12.2471c0 8.72363 -4.36133 13.5879 -11.2393 13.5879c-7.21387 0 -11.5752 -4.69727 -11.5752 -12.917c-0.167969 -7.88477 4.5293 -12.918 11.5752 -12.918zM121.29 242.328h5.70312v-6.54297
c2.68457 5.03223 7.21387 7.7168 12.582 7.7168c9.89746 0 16.6084 -7.21387 16.6084 -18.6211c0 -11.7432 -6.71094 -18.6211 -16.4404 -18.6211c-5.7041 0 -10.0654 2.68359 -12.582 7.7168v-23.1504h-5.87109v51.502zM138.736 211.963
c6.87793 0 11.2402 4.53027 11.2402 12.2471c0 8.72363 -4.3623 13.5879 -11.2402 13.5879c-7.21387 0 -11.5752 -4.69727 -11.5752 -12.917c-0.167969 -7.88477 4.5293 -12.918 11.5752 -12.918zM167.759 238.134c3.52344 3.52246 8.2207 5.36816 13.4209 5.36816
s9.72949 -2.0127 13.4209 -5.53613c3.52246 -3.52246 5.53613 -8.21973 5.53613 -13.2529c0 -5.03223 -2.01367 -9.5625 -5.53613 -13.2529c-3.69141 -3.52246 -8.38867 -5.53613 -13.4209 -5.53613c-5.2002 0 -9.73047 2.01367 -13.4209 5.53613
c-3.69043 3.69043 -5.53613 8.2207 -5.53613 13.2529c0 5.2002 1.8457 9.89746 5.53613 13.4209zM181.012 211.796c6.87793 0 12.4141 5.70312 12.4141 13.085c0 7.38086 -5.53613 13.085 -12.4141 13.085c-7.0459 0 -12.582 -5.7041 -12.582 -13.085
c0 -7.38184 5.7041 -13.085 12.582 -13.085zM208.021 242.328h5.20117v-7.21387c3.1875 5.87109 6.375 8.3877 11.5752 8.3877c1.3418 0 2.68457 -0.167969 4.02637 -0.670898l-2.01367 -5.36816c-1.3418 0.50293 -2.51562 0.670898 -3.69043 0.670898
c-6.20703 0 -9.39453 -4.5293 -9.39453 -13.5889v-16.9434h-5.7041v34.7266zM231.507 237.463v4.86523h6.375v13.9238h5.87207v-13.9238h6.54199v-4.86523h-6.54199v-29.8613h-5.87207v29.8613h-6.375zM259.522 224.21v-0.503906
c0 -7.54883 4.86523 -12.4141 11.4082 -12.4141c4.69727 0 8.3877 2.5166 11.2393 7.5498l4.53027 -3.02051c-3.52344 -6.20703 -8.8916 -9.39355 -16.1055 -9.39355c-10.5684 0 -17.6143 7.54883 -17.6143 18.9561c0 10.9043 7.21387 18.6211 17.2793 18.6211
c10.2334 0 16.6074 -6.87793 16.6074 -18.4531v-1.17383h-27.3447v-0.167969zM270.092 238.469c-5.7041 0 -9.89746 -3.69043 -10.5693 -9.56152h21.1377c-0.334961 6.20703 -4.36133 9.56152 -10.5684 9.56152zM327.801 207.77h-5.7041v6.20703
c-2.68359 -5.0332 -7.21289 -7.7168 -12.582 -7.7168c-9.89746 0 -16.6074 7.38086 -16.6074 18.6211c0 11.5752 6.70996 18.6211 16.4404 18.6211c5.70312 0 10.0654 -2.68457 12.582 -7.7168v30.5322h5.87109v-58.5479zM310.354 237.798
c-6.87793 0 -11.2393 -4.36133 -11.2393 -12.0781c0 -8.72363 4.36133 -13.5889 11.2393 -13.5889c7.21387 0 11.5762 4.69727 11.5762 12.918c0 7.54883 -4.69727 12.749 -11.5762 12.749zM360.346 266.485v-30.5322c2.68457 5.2002 6.87793 7.7168 12.582 7.7168
c9.73047 0 16.4404 -7.0459 16.4404 -18.6211c0 -11.4082 -6.70996 -18.6211 -16.6084 -18.6211c-5.36816 0 -9.89746 2.85156 -12.5811 7.7168v-6.20703h-5.7041v58.7148h5.87109v-0.166992zM371.754 211.963c6.87793 0 11.4072 5.0332 11.4072 13.5889
c0 7.7168 -4.19434 12.0791 -11.2402 12.0791c-7.04492 0 -11.7422 -5.0332 -11.7422 -12.918c0 -8.05273 4.36133 -12.75 11.5752 -12.75zM404.97 211.124l-13.5879 31.2041h6.87793l10.0654 -24.9961l10.7363 24.9961h6.54297l-23.3184 -51.6699h-6.71094zM446.238 263.13
h10.5693c10.4004 0 18.4531 0 25.1631 -5.2002c6.375 -4.86523 9.73047 -12.582 9.73047 -22.6475c0 -10.0664 -3.35547 -17.6152 -9.73047 -22.4805c-6.37402 -5.03223 -13.7559 -5.2002 -22.8145 -5.2002h-12.918v55.5283zM457.143 213.977
c9.39453 0 16.1055 0 20.8027 4.02637c4.5293 3.69043 7.0459 9.72949 7.0459 17.6143s-2.34863 13.7559 -7.0459 17.6152c-4.53027 3.8584 -11.2402 4.02539 -20.8027 4.02539h-4.19336v-43.1133h4.19336v-0.167969zM510.154 211.124l-13.5879 31.2041h6.87793
l10.0654 -24.9961l10.7363 24.9961h6.54297l-23.3184 -51.6699h-6.71094zM537.164 216.996c2.0127 -3.69043 4.86523 -5.53613 8.89062 -5.53613c4.02637 0 6.54297 2.18066 6.54297 5.2002c0 2.68457 -1.8457 4.02637 -5.36816 5.20117
c-8.55566 3.01953 -13.5889 4.36133 -13.5889 11.2393c0 6.04004 4.86523 10.4014 12.2471 10.4014c6.03906 0 10.4004 -2.5166 12.4141 -6.87793l-4.86523 -3.01953c-1.3418 3.1875 -4.19434 5.03223 -7.88477 5.03223c-3.52246 0 -5.87109 -2.18066 -5.87109 -5.2002
c0 -3.69043 3.18652 -4.19434 8.89062 -6.03906c6.71094 -2.18164 10.0654 -4.69727 10.0654 -10.4014c0 -6.375 -5.03223 -11.0723 -12.582 -11.0723c-6.37402 0 -10.9043 2.34863 -13.5879 7.21387zM569.038 238.134c3.52246 3.52246 8.21973 5.36816 13.4209 5.36816
c5.2002 0 9.72949 -2.0127 13.4209 -5.53613c3.52246 -3.52246 5.53516 -8.21973 5.53516 -13.2529c0 -5.03223 -2.0127 -9.5625 -5.53516 -13.2529c-3.69141 -3.52246 -8.38867 -5.53613 -13.4209 -5.53613c-5.20117 0 -9.73047 2.01367 -13.4209 5.53613
c-3.69043 3.69043 -5.53613 8.2207 -5.53613 13.2529c0 5.2002 1.8457 9.89746 5.53613 13.4209zM582.291 211.796c6.87793 0 12.4141 5.70312 12.4141 13.085c0 7.38086 -5.53613 13.085 -12.4141 13.085c-7.0459 0 -12.582 -5.7041 -12.582 -13.085
c0 -7.38184 5.7041 -13.085 12.582 -13.085zM609.133 242.328h5.87109v-5.36914c3.01953 4.53027 7.21387 6.54297 12.582 6.54297c8.05273 0 13.085 -4.5293 13.085 -12.4141v-23.6543h-5.87109v20.4668c0 7.0459 -3.01953 10.4014 -9.22754 10.4014
c-3.52246 0 -6.54199 -1.34277 -8.3877 -3.69141c-2.0127 -2.51562 -2.0127 -5.36816 -2.0127 -9.22656v-17.9502h-5.87207v34.8945h-0.166992zM666.842 263.465h6.70996v-49.4883h20.9697v-6.375h-27.6797v55.8633zM695.024 237.631v4.86426h6.375v14.0918h5.87207
v-14.0918h6.54199v-4.86426h-6.54199v-30.0293h-5.87207v30.0293h-6.375zM752.062 207.77h-5.70312v6.375c-2.68457 -5.0332 -7.21387 -7.7168 -12.582 -7.7168c-10.0654 0 -16.6084 7.38086 -16.6084 18.7881c0 11.7432 6.71094 18.7891 16.4404 18.7891
c5.7041 0 10.0654 -2.68359 12.75 -7.7168v30.7002h5.87109v-59.2188h-0.167969zM734.448 237.798c-6.87793 0 -11.2402 -4.5293 -11.2402 -12.2461c0 -8.72363 4.3623 -13.7559 11.2402 -13.7559c7.21387 0 11.7432 4.69727 11.7432 12.917
c0 8.05273 -4.69727 13.085 -11.7432 13.085zM767.329 215.989c2.5166 0 4.5293 -2.0127 4.5293 -4.5293s-2.0127 -4.36133 -4.5293 -4.36133s-4.5293 2.0127 -4.5293 4.36133c0 2.5166 2.0127 4.5293 4.5293 4.5293zM90.4219 115.502v-43.9531v-45.127
c0 -24.8281 -20.2988 -45.127 -45.2949 -45.127c-24.8281 0 -45.127 20.1309 -45.127 45.127s20.2988 45.127 45.127 45.127h21.4736v43.9531h23.8213zM66.6006 26.4219v21.4736h-21.4736c-11.9111 0 -21.4727 -9.5625 -21.4727 -21.4736s9.56152 -21.4727 21.4727 -21.4727
s21.4736 9.56152 21.4736 21.4727zM285.357 26.4219c0 24.9961 20.1318 45.127 45.1279 45.127s45.127 -20.1309 45.127 -45.127s-20.1309 -45.127 -45.127 -45.127s-45.1279 20.1309 -45.1279 45.127zM330.485 4.78125c11.9102 0 21.6406 9.72949 21.6406 21.6406
s-9.73047 21.6406 -21.6406 21.6406c-11.9111 0 -21.6416 -9.72949 -21.6416 -21.6406s9.73047 -21.6406 21.6416 -21.6406zM451.606 26.4219c0 11.7432 -9.56152 21.3057 -21.3047 21.3057s-21.3057 -9.5625 -21.3057 -21.3057v-43.2812h-23.8223v43.2812
c0 24.9961 20.1318 45.127 45.1279 45.127s45.127 -20.1309 45.127 -45.127v-43.2812h-23.8223v43.2812zM229.83 42.0234c5.87109 -3.69043 24.3242 -6.375 35.2285 -12.2461c22.3125 -11.7432 11.2402 -32.3779 8.72363 -35.5654
c-13.4209 -16.7754 -37.9131 -12.5811 -37.9131 -12.5811c-15.4336 2.51562 -25.332 7.54883 -32.8809 13.4199l11.4072 15.4346c5.53613 -4.19434 22.1445 -11.2402 34.3906 -8.38867c7.38184 1.67773 9.05957 7.0459 4.02637 9.89844
c-5.87109 3.35449 -25.1641 5.70312 -36.4033 12.749c-18.2861 11.4082 -9.05957 29.8613 -9.05957 29.8613c10.4014 19.6279 36.4043 16.4404 36.4043 16.4404c15.4336 -1.00684 26.002 -6.20703 30.8672 -10.2334l-11.2393 -15.2656
c-10.7373 4.69727 -22.9834 6.37402 -30.3652 4.36133c-5.53516 -1.50977 -6.70996 -5.7041 -3.18652 -7.88477zM118.773 -34.4746c1.00684 -0.670898 12.0781 -8.21973 22.8154 -8.3877c25.834 -0.50293 27.5117 26.3379 27.5117 32.7129
c-5.03223 -5.2002 -15.0977 -8.55566 -21.3047 -8.55566c-24.9961 0 -44.96 19.46 -44.96 44.4561v44.1201h23.8223v-44.1201c0 -11.7432 9.56152 -21.3057 21.3047 -21.3057s21.3057 9.5625 21.3057 21.3057v44.1201h23.8223v-44.1201
c0 -39.0879 1.84473 -79.1826 -36.0684 -88.2412c-28.6865 -6.87793 -48.9854 11.0723 -49.9922 11.9111z" />
    <glyph glyph-name="right-chevron" unicode="&#xf10f;" 
d="M0 -0.185547l192.928 192.928l-192.928 192.928l62.3301 62.3301l256.742 -255.258l-256.742 -256.742z" />
    <glyph glyph-name="download" unicode="&#xf127;" 
d="M232.844 97.376v350.624h48.8848v-350.624h-48.8848zM257.257 73.042l-127.047 127.047l34.5664 34.5664l127.047 -127.047zM384.362 200.146l-127.047 -127.047l-34.5664 34.5664l127.047 127.047zM0.571289 -64v182.674h42.3096v-182.674h-42.3096zM471.549 -64
v182.674h42.3096v-182.674h-42.3096zM0 -21.6904h514.573v-42.3096h-514.573v42.3096z" />
    <glyph glyph-name="circle-alert" unicode="&#xf11b;" 
d="M256 408.615c-119.139 0 -216.615 -97.4766 -216.615 -216.615s97.4766 -216.615 216.615 -216.615s216.615 97.4766 216.615 216.615s-97.4766 216.615 -216.615 216.615zM256 448v0c141.784 0 256 -114.216 256 -256s-114.216 -256 -256 -256s-256 114.216 -256 256
s114.216 256 256 256zM236.308 152.615v177.23h39.3848v-177.23h-39.3848zM226.462 83.6924c0 16.3135 13.2246 29.5381 29.5381 29.5381s29.5381 -13.2246 29.5381 -29.5381s-13.2246 -29.5381 -29.5381 -29.5381s-29.5381 13.2246 -29.5381 29.5381z" />
    <glyph glyph-name="instagram" unicode="&#xf10b;" 
d="M256 325.161c72.2578 0 132.129 -58.8389 132.129 -132.129s-58.8389 -132.129 -132.129 -132.129s-132.129 58.8389 -132.129 132.129s59.8711 132.129 132.129 132.129zM256 108.387c46.4512 0 84.6455 38.1943 84.6455 84.6455s-38.1943 84.6455 -84.6455 84.6455
s-84.6455 -38.1943 -84.6455 -84.6455s38.1943 -84.6455 84.6455 -84.6455zM363.354 328.258c0 16.5332 13.4033 29.9355 29.9355 29.9355c16.5332 0 29.9355 -13.4023 29.9355 -29.9355c0 -16.5322 -13.4023 -29.9355 -29.9355 -29.9355
c-16.5322 0 -29.9355 13.4033 -29.9355 29.9355zM470.71 405.678c26.8389 -26.8389 41.29 -64 41.29 -107.355v-212.645c0 -44.3877 -14.4512 -82.5811 -42.3223 -109.42c-26.8389 -25.8066 -64 -40.2578 -108.388 -40.2578h-210.58
c-42.3232 0 -79.4844 13.4189 -107.355 40.2578c-28.9033 27.8711 -43.3545 66.0645 -43.3545 110.452v211.612c0 89.8066 59.8711 149.678 149.678 149.678h212.645c43.3555 0 81.5488 -14.4512 108.388 -42.3223zM464.517 85.6777v212.645
c0 30.9678 -9.29102 56.7744 -26.8389 74.3232c-18.5811 18.5801 -44.3877 27.8711 -75.3555 27.8711h-212.645c-30.9678 0 -57.8066 -9.29102 -75.3555 -26.8389c-18.5801 -18.5811 -27.8711 -44.3877 -27.8711 -75.3555v-211.612c0 -32 10.3232 -57.8066 28.9033 -76.3877
c18.5811 -17.5479 44.3877 -26.8389 75.3555 -26.8389h210.58c30.9678 0 57.8066 9.29102 75.3555 26.8389c18.5801 17.5488 27.8711 43.3555 27.8711 75.3555z" />
    <glyph glyph-name="tick" unicode="&#xf11d;" 
d="M233.25 -63.4199l-73.1387 73.1377l438.83 438.831l73.1387 -73.1387zM231.549 -63.3311l-232.215 232.215l73.1387 73.1377l232.214 -232.214z" />
    <glyph glyph-name="eye" unicode="&#xf122;" 
d="M256 344.6c97.8232 0 186.534 -53.5195 251.994 -140.555c5.34082 -7.12207 5.34082 -17.0723 0 -24.1943c-65.46 -86.9307 -154.171 -140.45 -251.994 -140.45s-186.534 53.5195 -251.994 140.555c-5.34082 7.12207 -5.34082 17.0723 0 24.1943
c65.46 86.9307 154.171 140.45 251.994 140.45zM263.018 84.541c53.5195 3.45605 96.9854 46.9219 100.441 100.441c4.08398 65.041 -49.54 118.561 -114.477 114.477c-53.624 -3.35156 -97.0898 -46.8174 -100.441 -100.441
c-4.08398 -65.041 49.54 -118.561 114.477 -114.477zM259.771 134.186c-34.9814 -2.19922 -63.8887 26.6035 -61.585 61.585c1.78125 28.9072 25.2412 52.2627 54.1484 54.1484c34.9824 2.19922 63.8887 -26.6025 61.585 -61.585
c-1.88574 -29.0117 -25.3457 -52.3672 -54.1484 -54.1484z" />
    <glyph glyph-name="cross" unicode="&#xf115;" 
d="M512 401.6l-209.6 -209.6l209.6 -209.6l-46.4004 -46.4004l-209.6 209.6l-209.6 -209.6l-46.4004 46.4004l209.6 209.6l-209.6 209.6l46.4004 46.4004l209.6 -209.6l209.6 209.6z" />
    <glyph glyph-name="jda-logo" unicode="&#xf113;" 
d="M40.9463 438.187h-32.1475v9.81348h74.7861v-9.81348h-32.1484v-106.258h-10.4902v106.258zM93.3984 448h10.4902v-47.0381h63.2812v47.0381h10.4902v-116.41h-10.4902v60.2354h-63.2812v-59.8965h-10.4902v116.071zM194.242 448h57.5273v-9.81348h-47.0371v-36.5479
h47.0371v-9.81348h-47.0371v-50.083h47.0371v-9.81348h-57.5273v116.071zM54.8213 316.023v-90.6914c0 -19.2881 -8.12207 -28.7637 -26.0576 -28.7637c-9.47461 0 -16.9199 3.72266 -23.6875 11.5059l9.13672 9.13672c5.41406 -5.41406 9.81348 -8.45996 15.5664 -8.45996
c9.81348 0 11.5059 8.12109 11.5059 23.0107v84.2617h13.5361zM306.93 316.023h61.25v-12.5205h-47.376v-33.1631h47.376v-12.8594h-47.376v-44.6689h47.376v-12.8594h-61.25v116.071zM447.027 232.438c0 -21.3184 -14.8896 -35.5312 -37.2246 -35.5312
c-18.2734 0 -31.1328 9.81348 -35.5322 27.0713l12.5215 6.0918c3.38379 -14.2129 11.5059 -21.3193 23.0107 -21.3193c13.875 0 23.3496 8.79785 23.3496 21.6572c0 10.4902 -6.09082 17.9355 -17.9346 23.3496l-14.2129 6.0918
c-15.5664 6.42969 -23.0117 16.5811 -23.0117 30.7939c0 16.2432 13.1982 28.7646 32.8252 28.7646c13.874 0 24.3643 -6.0918 30.1172 -17.5977l-11.5049 -7.44434c-5.07617 8.79883 -11.5059 13.1973 -19.6279 13.1973c-10.4902 0 -17.5967 -7.10645 -17.5967 -16.9199
c0 -8.45996 5.07617 -14.2129 15.5664 -18.6123l16.582 -7.44434c15.2275 -6.76758 22.6729 -17.5967 22.6729 -32.1484zM21.9961 184.048h25.3799c21.6582 0 38.5781 0 52.791 -10.8291c13.1973 -10.1523 20.6416 -26.3955 20.6416 -47.376
s-7.10645 -36.8857 -20.6416 -47.0381c-13.5361 -10.4902 -28.7646 -10.8281 -47.7148 -10.8281h-30.4561v116.071zM56.8516 84.8965c12.8594 0 22.6729 0.676758 31.1328 7.7832c8.79785 7.44434 13.1973 18.6113 13.1973 33.501s-4.39941 26.0576 -13.1973 33.502
c-8.45996 7.10645 -19.2891 7.7832 -33.502 7.7832h-13.5361v-82.2314h15.9053v-0.337891zM151.941 121.105l-38.916 62.9424h19.9658l24.3652 -39.5928c0.337891 -0.676758 2.36816 -4.06152 4.7373 -9.13672c1.35352 3.72168 3.0459 7.10645 4.7373 9.81348l25.042 38.916
h18.9502l-39.9307 -62.9424v-53.1289h-18.6123v53.1289h-0.338867zM224.359 98.0938c2.70703 -10.4902 10.4902 -15.9043 22.335 -15.9043c11.5049 0 18.2734 6.76758 18.2734 17.2578c0 11.5059 -8.45996 14.2129 -20.6426 19.9658
c-20.6426 10.1523 -32.1484 17.9355 -32.1484 35.5322c0 18.6123 13.875 31.8096 34.8555 31.8096c17.2588 0 29.1025 -7.10645 33.502 -19.2891l-14.8896 -7.7832c-4.06055 7.44531 -9.47559 10.8291 -16.582 10.8291c-10.1514 0 -16.5811 -5.75293 -16.5811 -14.5518
c0 -11.167 9.13672 -14.5508 21.9961 -20.6416c20.6426 -9.47559 30.1172 -17.5977 30.1172 -34.5176c0 -21.6572 -14.5508 -35.8701 -38.5771 -35.8701c-19.9658 0 -32.8252 9.47559 -36.8857 26.3955zM398.298 82.5273
c-11.8447 -11.5059 -27.4111 -17.9355 -43.9922 -17.9355c-16.582 0 -32.4863 6.42969 -43.9922 17.9355c-11.8438 11.5059 -17.9355 26.3955 -17.9355 42.9766c0 16.582 6.0918 31.4717 17.9355 43.3154c11.8438 11.5059 27.4102 17.5967 43.9922 17.5967
c16.5811 0 32.1475 -6.09082 43.9922 -17.5967c11.8438 -11.8438 18.2734 -26.7334 18.2734 -43.3154c0 -16.5811 -6.42969 -31.4707 -18.2734 -42.9766zM384.423 156.637c-8.12109 8.45996 -18.6123 12.5215 -29.7793 12.5215s-21.9961 -4.39941 -30.1172 -12.5215
c-8.12207 -8.45996 -12.5215 -19.2881 -12.5215 -30.7939c0 -11.8438 4.06152 -22.335 12.5215 -30.7949c8.12109 -8.45996 18.6113 -12.5205 30.1172 -12.5205s21.6582 4.39941 29.7793 12.5205c8.12207 8.12207 12.5205 18.9512 12.5205 30.7949
c0 11.5059 -4.39844 22.334 -12.5205 30.7939zM449.396 158.668v-91.0303h-17.9346v116.41h22.334l60.9121 -90.6914v90.6914h17.9355v-116.41h-21.6582zM119.794 315.686l0.337891 -0.338867l50.4219 -115.732h-15.9043l-12.5215 30.1172h-56.8506l-12.5215 -30.1172
h-15.9043l50.4219 116.071h12.5205zM136.714 242.253l-23.0117 56.1738l-23.3496 -56.1738h46.3613zM234.512 224.655l37.9004 91.0303h19.2891v-116.071h-13.5361v95.4287l-39.9307 -95.4287h-7.44531l-39.9316 95.4287v-95.4287h-13.5352v116.071h19.2881
l0.338867 -0.338867zM433.829 -64l-30.4561 54.1445v-54.1445h-24.7031v116.071h35.5322c28.4258 0 42.2998 -11.167 42.2998 -32.8252c0 -16.2432 -10.8281 -28.4248 -25.7178 -30.4561l32.1475 -52.79h-29.1025zM407.096 2.66504
c15.5664 0 24.7031 1.35352 24.7031 14.8896s-8.79785 15.9043 -24.7031 15.9043h-3.72266v-30.4561h3.72266v-0.337891zM477.145 52.0713h31.8096c20.3047 0 35.5322 -1.69238 48.3916 -11.5059c13.874 -10.4902 21.3193 -26.3945 21.3193 -47.0371
s-7.7832 -36.8857 -21.6582 -47.0381c-13.874 -10.1514 -28.7637 -10.8291 -46.0225 -10.8291h-33.8398v116.41zM515.723 -43.0195c25.3799 0 37.2236 10.8291 37.2236 36.8857c0 26.3955 -12.1826 36.8857 -37.2236 36.8857h-13.875v-74.1094h13.875v0.337891z
M50.083 52.0713h21.3193l50.4219 -116.071h-28.7637l-10.1523 24.7031h-45.0078l-9.81348 -24.7031h-28.0869zM60.2354 18.5693l-14.2129 -36.208h28.4258zM103.551 52.0713h27.749l18.6113 -74.4482h0.338867l24.3643 74.4482h23.6885l24.0264 -76.4785h0.338867
l19.627 76.4785h26.0566l-33.8398 -116.071h-22.6729l-25.7188 80.5391h-0.337891l-25.7188 -80.5391h-21.9961zM300.838 52.0713h21.3193l50.4219 -116.071h-28.7646l-10.1514 24.7031h-45.0078l-9.81348 -24.7031h-28.0869zM310.651 18.5693l-14.2129 -36.208h28.4258z
" />
    <glyph glyph-name="left-chevron" unicode="&#xf10c;" 
d="M319.072 385.67l-192.928 -192.928l192.928 -192.928l-63.8145 -63.8145l-255.258 256.742l255.258 255.258z" />
    <glyph glyph-name="circle" unicode="&#xf120;" 
d="M256 408.615c-119.139 0 -216.615 -97.4766 -216.615 -216.615s97.4766 -216.615 216.615 -216.615s216.615 97.4766 216.615 216.615s-97.4766 216.615 -216.615 216.615zM256 448v0c141.784 0 256 -114.216 256 -256s-114.216 -256 -256 -256s-256 114.216 -256 256
s114.216 256 256 256z" />
    <glyph glyph-name="up-chevron" unicode="&#xf112;" 
d="M719.182 -64l-309.582 309.581l-309.581 -309.581l-100.019 102.4l409.6 409.6l411.981 -409.6z" />
    <glyph glyph-name="play" unicode="&#xf116;" 
d="M0 -64v512l341.868 -259.21zM48.1504 350.896v-319.398l213.467 158.095z" />
    <glyph glyph-name="users" unicode="&#xf125;" 
d="M308.97 333.485c0.625977 40.9258 33.9482 73.9404 75.0273 73.9531c41.4746 0 75.0908 -33.6152 75.0908 -75.0908c0 -41.4688 -33.6162 -75.084 -75.0908 -75.084c-11.3613 0 -22.0762 2.59375 -31.7314 7.10547c-3.02148 29.1553 -19.6221 54.2734 -43.2959 69.1162z
M259.776 179.738c-41.4688 0 -75.1035 33.6162 -75.1035 75.084c0 41.4688 33.6348 75.0908 75.1035 75.0908s75.0908 -33.6152 75.0908 -75.084s-33.6162 -75.0908 -75.0908 -75.0908zM291.629 174.62c53.0146 0 96.1445 -43.1357 96.125 -96.1504v-77.9346h-0.537109
l-5.01562 -2.53711c-2.52344 -1.28418 -43.4814 -21.4307 -114.144 -21.4307c-36.1787 0 -80.1328 5.27148 -130.726 21.0801l-5.36719 1.67969l-0.198242 1.2207v77.9219c0 53.0146 43.1299 96.1504 96.1445 96.1504h63.7178zM415.862 252.139
c53.0078 0 96.1377 -43.1299 96.1377 -96.1377v-77.9473h-0.537109l-5.01562 -2.54297c-2.37012 -1.18848 -38.3438 -18.8809 -100.771 -21.1689v24.0127c0 51.6152 -34.4785 95.3135 -81.6016 109.326c17.0791 16.3828 27.8779 39.1621 28.5615 64.458h63.2256z
M128.016 257.251c-41.4814 0 -75.0908 33.6221 -75.0908 75.0781c0 41.4746 33.6094 75.0908 75.0908 75.0908c41.4561 0 75.0781 -33.6162 75.0781 -75.0908c0 -1.41895 -0.133789 -2.81152 -0.210938 -4.21777c-18.3828 -14.2871 -31.251 -35.2637 -34.9316 -59.2695
c-11.5781 -7.30371 -25.2451 -11.5908 -39.9355 -11.5908zM195.452 187.681c-47.1367 -14.0254 -81.6016 -57.7109 -81.6143 -109.326v-23.5332c-31.4629 1.83984 -67.6855 7.68066 -108.272 20.3506l-5.36719 1.69336l-0.198242 1.20117v77.9346
c0 53.0078 43.1299 96.1377 96.1445 96.1377h63.7109c2.38965 0 4.70898 -0.18457 7.05371 -0.357422c0.786133 -25.1436 11.5469 -47.8008 28.543 -64.1006z" />
    <glyph glyph-name="down-chevron" unicode="&#xf108;" 
d="M100.019 448l309.581 -309.581l309.582 309.581l102.399 -100.019l-411.981 -411.981l-409.6 411.981z" />
    <glyph glyph-name="facebook" unicode="&#xf109;" 
d="M483.801 448c15.5381 0 28.1992 -12.6611 28.0078 -28.1992v-455.793c0 -15.5391 -12.6611 -28.1992 -28.2002 -28.1992h-130.445v198.354h66.5654l9.97559 77.3076h-76.541v49.3008c0 22.4443 6.33008 37.5996 38.3662 37.5996h40.8604v69.0596
c-7.09766 0.958984 -31.4609 3.06934 -59.6602 3.06934c-58.8926 0 -99.3691 -35.873 -99.3691 -102.055v-56.7822h-66.7568v-77.3086h66.7568v-198.163h-245.161c-15.5381 0 -28.1992 12.6611 -28.1992 28.2002v455.409c0 15.5381 12.6611 28.1992 28.1992 28.1992h455.602
z" />
    <glyph glyph-name="copy" unicode="&#xf121;" 
d="M360.728 448v-46.5459h-279.273v-325.817h-46.5449v325.817c0 25.6006 20.9453 46.5459 46.5449 46.5459h279.273zM430.546 354.909c25.5996 0 46.5449 -20.9453 46.5449 -46.5459v-325.817c0 -25.6006 -20.9453 -46.5459 -46.5449 -46.5459h-256
c-25.6006 0 -46.5459 20.9453 -46.5459 46.5459v325.817c0 25.6006 20.9453 46.5459 46.5459 46.5459h256zM430.546 -17.4541v325.817h-256v-325.817h256z" />
    <glyph glyph-name="circle-info" unicode="&#xf126;" 
d="M256 -24.6152c119.139 0 216.615 97.4766 216.615 216.615s-97.4766 216.615 -216.615 216.615s-216.615 -97.4766 -216.615 -216.615s97.4766 -216.615 216.615 -216.615zM256 -64v0c-141.784 0 -256 114.216 -256 256s114.216 256 256 256s256 -114.216 256 -256
s-114.216 -256 -256 -256zM236.308 54.1543v177.23h39.3848v-177.23h-39.3848zM226.462 300.308c0 16.3135 13.2246 29.5381 29.5381 29.5381s29.5381 -13.2246 29.5381 -29.5381s-13.2246 -29.5381 -29.5381 -29.5381s-29.5381 13.2246 -29.5381 29.5381z" />
    <glyph glyph-name="search" unicode="&#xf110;" 
d="M512 -36.4307l-27.5693 -27.5693l-112.246 112.246c-39.3848 -33.4766 -90.585 -53.1689 -145.723 -53.1689c-125.047 0 -226.462 101.415 -226.462 226.461c0 125.047 101.415 226.462 226.462 226.462c125.046 0 226.461 -101.415 226.461 -226.462
c0 -55.1377 -19.6924 -106.338 -53.1689 -145.723zM39.3848 221.538c0 -103.384 83.6924 -187.076 187.077 -187.076c103.384 0 187.076 83.6924 187.076 187.076c0 103.385 -83.6924 187.077 -187.076 187.077c-103.385 0 -187.077 -83.6924 -187.077 -187.077z" />
    <glyph glyph-name="circle-arrow-right" unicode="&#xf118;" 
d="M256 448c141.714 0 256 -114.286 256 -256s-114.286 -256 -256 -256s-256 114.286 -256 256s114.286 256 256 256zM292.571 82.2861l109.715 109.714l-109.715 109.714l-26.5137 -25.5996l65.8281 -65.8281h-222.172v-36.5723h223.086l-65.8281 -65.8281z" />
    <glyph glyph-name="youtube" unicode="&#xf11e;" 
d="M492.044 341.231c18.5674 -22.0674 19.9561 -55.8672 19.9561 -104.912v-88.6406c0 -56.2012 -8.86426 -88.6631 -29.6396 -108.545c-20.2588 -19.3887 -51.5732 -27.2969 -108.085 -27.2969h-236.554c-116.423 0 -137.722 45.7451 -137.722 135.842v88.6406
c0 46.5059 0 80.1084 17.9512 102.914c18.4121 23.3896 53.1123 32.9297 119.771 32.9297h236.552c65.166 0 99.2891 -8.96191 117.771 -30.9316zM328.706 179.762c5.45605 2.85059 8.87402 8.50098 8.86719 14.6611c-0.00878906 6.15527 -3.44043 11.7979 -8.90527 14.6348
l-107.418 55.7783c-5.11816 2.65918 -11.2539 2.4541 -16.1875 -0.541992c-4.93164 -2.99512 -7.94043 -8.34668 -7.94043 -14.1143v-111.92c0 -5.77734 3.0166 -11.1338 7.95898 -14.1279c2.62402 -1.58887 5.58691 -2.3877 8.55664 -2.3877
c2.62305 0 5.24902 0.62207 7.65039 1.87695z" />
    <glyph glyph-name="plus" unicode="&#xf124;" 
d="M512 166.761h-230.761v-230.761h-50.4785v230.761h-230.761v50.4785h230.761v230.761h50.4785v-230.761h230.761v-50.4785z" />
    <glyph glyph-name="arrow-right" unicode="&#xf11f;" 
d="M292.571 82.2861l-25.5996 25.5996l65.8281 65.8281h-223.086v36.5723h222.172l-65.8281 65.8281l26.5137 25.5996l109.715 -109.714z" />
    <glyph glyph-name="circle-tick" unicode="&#xf11c;" 
d="M256 408.615c-119.139 0 -216.615 -97.4766 -216.615 -216.615s97.4766 -216.615 216.615 -216.615s216.615 97.4766 216.615 216.615s-97.4766 216.615 -216.615 216.615zM256 448v0c141.784 0 256 -114.216 256 -256s-114.216 -256 -256 -256s-256 114.216 -256 256
s114.216 256 256 256zM217.114 84.8965l-27.8486 27.8486l167.094 167.094l27.8486 -27.8486zM216.467 84.9307l-88.4199 88.4199l27.8486 27.8486l88.4199 -88.4199z" />
  </font>
</defs>
</svg>
